<?xml version="1.0" encoding="UTF-8" standalone="no"?>
<!-- Created with Inkscape (http://www.inkscape.org/) -->

<svg
   width="512"
   height="512"
   viewBox="0 0 131.97485 131.97485"
   version="1.1"
   id="svg1"
   xml:space="preserve"
   xmlns="http://www.w3.org/2000/svg"
   xmlns:svg="http://www.w3.org/2000/svg"
   xmlns:rdf="http://www.w3.org/1999/02/22-rdf-syntax-ns#"
   xmlns:cc="http://creativecommons.org/ns#"
   xmlns:dc="http://purl.org/dc/elements/1.1/"><title
     id="title31">ARTIXO</title><defs
     id="defs1" /><g
     id="layer2"
     style="stroke-width:1.18056;stroke-dasharray:none"><path
       id="path2"
       style="baseline-shift:baseline;display:inline;overflow:visible;opacity:1;fill:#7386ff;stroke:#7386ff;stroke-width:7.7329;stroke-dasharray:none;stroke-opacity:1;enable-background:accumulate;stop-color:#000000;stop-opacity:1"
       d="m 86.839073,20.758511 c 1.087589,2.223579 1.830101,4.64624 2.157258,7.198243 10.547774,21.095878 21.096259,42.191691 31.644479,63.287455 1.52128,3.042431 2.31232,6.396954 2.31232,9.798531 0,12.10812 -9.80227,21.91039 -21.91039,21.91039 -8.300067,1e-5 -15.883499,-4.68763 -19.595554,-12.11135 L 66.701309,81.365628 65.987425,82.805982 80.292789,111.41822 c 3.929158,7.85791 11.964445,12.82375 20.749951,12.82373 12.80465,0 23.19921,-10.39456 23.19921,-23.19921 1e-5,-3.60163 -0.838,-7.153608 -2.44875,-10.374975 z m -40.698421,0.874985 -3.162133,6.323762 c -0.266905,0.958735 -0.191915,1.986805 -0.189295,2.974347 -1.1e-5,3.601623 0.838507,7.153612 2.449256,10.374976 L 65.266996,81.365628 65.987425,79.923765 46.390863,40.730641 c -1.521279,-3.04243 -2.312833,-6.397469 -2.312822,-9.799036 -10e-7,-3.325109 0.73939,-6.476102 2.062611,-9.298109 z" /><path
       d="M 65.988432,7.7323979 C 57.20293,7.732382 49.167639,12.698718 45.23848,20.556629 L 10.181653,90.667765 c -1.6107499,3.221364 -2.449267,6.77335 -2.4492551,10.374975 -4e-6,12.80466 10.3945461,23.19921 23.1992071,23.19921 8.785803,1.1e-4 16.820854,-4.96546 20.749952,-12.82373 L 86.73637,41.306581 C 88.347122,38.085215 89.185638,34.533232 89.185626,30.931605 89.185627,18.126946 78.793091,7.7323961 65.988432,7.7323979 Z m 0,1.2893204 c 12.108129,-1.7e-6 21.907874,9.8017577 21.907873,21.9098867 1.2e-5,3.401571 -0.791037,6.756604 -2.312318,9.799036 L 50.529174,110.84178 c -3.711998,7.42406 -11.297221,12.11145 -19.597569,12.11135 -12.108131,0 -21.9098905,-9.80226 -21.9098867,-21.91039 -1.12e-5,-3.401569 0.7930528,-6.756101 2.3143327,-9.798531 L 46.390863,21.13257 C 50.102918,13.708845 57.688368,9.0217033 65.988432,9.0217183 Z"
       style="baseline-shift:baseline;display:inline;overflow:visible;opacity:1;fill:#73ccff;stroke:#73ccff;stroke-width:7.7329;stroke-dasharray:none;enable-background:accumulate;stop-color:#000000;stop-opacity:1"
       id="path1" /></g><metadata
     id="metadata3"><rdf:RDF><cc:License
         rdf:about="http://creativecommons.org/licenses/by-nc-sa/4.0/"><cc:permits
           rdf:resource="http://creativecommons.org/ns#Reproduction" /><cc:permits
           rdf:resource="http://creativecommons.org/ns#Distribution" /><cc:requires
           rdf:resource="http://creativecommons.org/ns#Notice" /><cc:requires
           rdf:resource="http://creativecommons.org/ns#Attribution" /><cc:prohibits
           rdf:resource="http://creativecommons.org/ns#CommercialUse" /><cc:permits
           rdf:resource="http://creativecommons.org/ns#DerivativeWorks" /><cc:requires
           rdf:resource="http://creativecommons.org/ns#ShareAlike" /></cc:License><cc:Work
         rdf:about=""><cc:license
           rdf:resource="http://creativecommons.org/licenses/by-nc-sa/4.0/" /><dc:title>ARTIXO</dc:title></cc:Work></rdf:RDF></metadata></svg>
